<svg xmlns="http://www.w3.org/2000/svg" width="980" height="280" viewBox="0 0 980 280">
<rect width="980" height="280" fill="#F7F3EA"/>
<text x="40" y="48" font-family="Georgia, serif" font-size="28" fill="#222222">Paper-Ready Benchmark Pipeline</text>
<rect x="40" y="90" width="170" height="110" rx="18" fill="#DCE8D8" stroke="#2F5D50" stroke-width="2"/>
<text x="64" y="126" font-family="Helvetica, Arial, sans-serif" font-size="18" fill="#1F2A2A">Dataset Inputs</text>
<text x="64" y="154" font-family="Helvetica, Arial, sans-serif" font-size="14" fill="#1F2A2A">CHICO</text>
<text x="64" y="176" font-family="Helvetica, Arial, sans-serif" font-size="14" fill="#1F2A2A">HA-ViD</text>
<rect x="255" y="90" width="190" height="110" rx="18" fill="#F0E2B6" stroke="#8B6F2F" stroke-width="2"/>
<text x="281" y="126" font-family="Helvetica, Arial, sans-serif" font-size="18" fill="#3B2F14">Harmonize + Split</text>
<text x="281" y="154" font-family="Helvetica, Arial, sans-serif" font-size="14" fill="#3B2F14">train/test manifests</text>
<text x="281" y="176" font-family="Helvetica, Arial, sans-serif" font-size="14" fill="#3B2F14">coverage-gap tracking</text>
<rect x="490" y="90" width="190" height="110" rx="18" fill="#E7D8E8" stroke="#6A4C72" stroke-width="2"/>
<text x="524" y="126" font-family="Helvetica, Arial, sans-serif" font-size="18" fill="#34203A">Baselines</text>
<text x="524" y="154" font-family="Helvetica, Arial, sans-serif" font-size="14" fill="#34203A">rules / classical / deep</text>
<text x="524" y="176" font-family="Helvetica, Arial, sans-serif" font-size="14" fill="#34203A">within / cross / merged</text>
<rect x="725" y="90" width="215" height="110" rx="18" fill="#D8E5F2" stroke="#365C7A" stroke-width="2"/>
<text x="756" y="126" font-family="Helvetica, Arial, sans-serif" font-size="18" fill="#1D3144">Reports + Figures</text>
<text x="756" y="154" font-family="Helvetica, Arial, sans-serif" font-size="14" fill="#1D3144">benchmark matrix</text>
<text x="756" y="176" font-family="Helvetica, Arial, sans-serif" font-size="14" fill="#1D3144">ablations / error analysis</text>
<path d="M210 145 L255 145" stroke="#444444" stroke-width="3" fill="none"/>
<path d="M445 145 L490 145" stroke="#444444" stroke-width="3" fill="none"/>
<path d="M680 145 L725 145" stroke="#444444" stroke-width="3" fill="none"/>
</svg>
